<?xml version="1.0" encoding="UTF-8"?>
<svg viewBox="0 0 330 330" xmlns="http://www.w3.org/2000/svg">
 <defs>
  <linearGradient id="c" x1="42.56" x2="255.73" y1="222.07" y2="42.443" gradientUnits="userSpaceOnUse">
   <stop stop-color="#0a0400" stop-opacity=".749" offset="0"/>
   <stop stop-color="#4d4d4d" offset=".5"/>
   <stop stop-color="#2b1100" offset="1"/>
  </linearGradient>
  <radialGradient id="b" cx="137.63" cy="472.46" r="140.22" gradientTransform="matrix(1 0 0 .10599 0 422.39)" gradientUnits="userSpaceOnUse">
   <stop stop-opacity=".6507" offset="0"/>
   <stop stop-opacity="0" offset="1"/>
  </radialGradient>
  <radialGradient id="a" cx="76.246" cy="-104.88" r="108.55" gradientTransform="matrix(.36426 1.3 -1.2734 .3568 -85.079 -166.58)" gradientUnits="userSpaceOnUse">
   <stop stop-color="#f95" offset="0"/>
   <stop stop-color="#f60" offset=".5"/>
   <stop stop-color="#a14d2b" offset="1"/>
  </radialGradient>
 </defs>
 <path transform="matrix(.98965 0 0 1.1869 33.4 -253.91)" d="m277.85 472.46c0 8.2078-62.777 14.862-140.22 14.862s-140.22-6.6538-140.22-14.862 62.777-14.862 140.22-14.862 140.22 6.6538 140.22 14.862z" fill="url(#b)" opacity=".7"/>
 <g transform="matrix(1.0364 0 0 1.0364 -9.1071 -14.718)">
  <path transform="matrix(1.3333 0 0 1.3333 87.016 274.36)" d="m169.29-82.586c0 59.953-48.601 108.55-108.55 108.55s-108.55-48.601-108.55-108.55 48.601-108.55 108.55-108.55 108.55 48.601 108.55 108.55z" fill="url(#a)"/>
  <path d="m135.59 23.144c-2.2199 0.50777-4.4141 1.0789-6.5938 1.6875-3.4413 2.2602-6.9274 4.8175-9.7812 7.3125-10.404 9.0954-17.598 17.537-26.5 31.125-8.4214 13.296-14.455 27.371-19.656 40-2.0261 4.6592-8.8737 30.086-10.625 39.5-0.66503 3.575-1.3342 6.644-1.5 6.8125-0.95519 0.97083-10.851-3.4562-14.719-6.5938-5.847-4.743-8.1421-8.1967-10.844-16.219-1.8847-5.5962-2.084-7.8316-1.5938-16.719-1.5519 3.8401-2.9638 7.7546-4.1875 11.75 1.4e-4 0.0106-1.5e-4 0.0206 0 0.0312 0.01435 1.0121 0.06845 1.9727 0.15625 2.8438 1.9559 15.885 13.944 26.693 30.906 33.344 0.24876 0.6875 0.0757 4.85-0.375 9.25s-0.5735 12.482-0.28125 17.938c0.43297 8.0831 0.28394 9.7221-0.78125 8.875-11.896-3.0125-25.116-6.2181-34.75-11.094 0.42174 3.2614 0.95863 6.4979 1.5938 9.6875 1.6112 0.71576 3.4826 1.3903 5.6875 2.0625 9.2111 3.0989 20.302 5.8077 28.281 8.1875 0.14501 11.129 2.2962 17.104 3.6562 27.75l0.40625 3.375-9.1562-0.53125c-5.0509-0.30134-9.8476-0.14838-10.625 0.34375-1.1968 0.75761-1.1762 0.8976 0.09375 0.9375 1.2166 0.0382 1.1694 0.29751-0.25 1.375-0.39514 0.29996-0.76873 0.74651-1.0625 1.25 0.71784 1.2227 1.4664 2.4256 2.2188 3.625 0.98894-0.21548 1.1888 0.0505 0.8125 1.0312-0.02793 0.0728-0.03957 0.12233-0.0625 0.1875l0.53125 0.8125c0.47169-0.11351 1.226-0.40799 2.3438-0.875 1.874-0.78298 6.5116-1.4375 10.312-1.4375 6.7899 0 6.9533 0.0699 8.2188 3.125 2.622 7.4636 6.0444 14.899 9.2812 21.875 2.4179 5.1108 7.3568 12.702 13.125 20.312 2.3218 1.492 4.6836 2.9208 7.0938 4.2812-8.1538-9.2413-15.255-19.416-16.156-24.219-3.5528-6.4912-4.029-14.799-5.9375-21.125-0.40274-1.3236-0.26424-2.25 0.34375-2.25 0.56843 0 6.1418 1.8998 12.375 4.1875 13.628 4.3638 28.121 10.183 38.938 16.656 21.98 13.198 42.785 22.154 64.375 27.719 8.2637 2.1299 12.778 2.639 26 2.9062 11.218 0.22674 13.162 0.13709 6.5-0.3125-7.5824-0.5117-10.141-1.1108-12.656-2.9062-1.7338-1.2375-4.1013-2.25-5.2812-2.25-18.048-4.8218-32.701-9.7938-50.062-18.406-4.675-2.3414-14.575-7.3526-22-11.156-10.199-6.3452-23.133-10.229-33.344-14.875-1.7331-0.79653-8.8186-3.2797-15.75-5.5312l-12.594-4.0938-1.6875-8.2188c-1.8043-8.8024-3.708-22.948-3.1562-23.5 0.18469-0.1847 3.8702 0.17208 8.1875 0.78125s19.544 1.2633 33.844 1.4688c21.935-0.66325 47.923 0.2407 71.188-1.4688 4.5882-0.01 34.091-2.7023 54.312-4.9688 28.867-3.2355 58.458-10.792 72.5-18.5 2.0267-1.1125 3.8602-2.2998 5.2812-3.3438 0.1748-2.0101 0.31448-4.0297 0.40625-6.0625-0.93788-0.0975-2.8862 0.66987-6.8125 2.4062-9.9276 4.3904-32.732 10.408-55.219 14.562-12.579 2.3241-37.804 5.3583-62.156 7.4688-30.369 2.6318-115.03 1.5758-121-1.5-1.7806-0.91787-2.5639-17.734-1.2812-27.562l0.78125-6 7.9688-0.78125c10.301-1.0203 23.719-5.5299 35.031-11.781 41.766-30.993 85.798-61.767 132.56-79 10.94-3.7998 13.83-4.384 23.812-4.875l5.6875-0.28125c-1.9218-1.9837-3.9057-3.9098-5.9375-5.7812-0.79474-0.0071-1.6651 0-2.6562 0-11.673 0-26.316 3.606-40.469 9.9688-29.504 12.986-56.699 30.232-81.844 48.531-9.8214 7.1603-19.946 14.519-22.5 16.344-6.3053 4.505-18.746 10.738-24.188 12.125-2.4546 0.62567-5.3688 1.5424-6.4688 2.0625-3.2672 1.5447-13.668 3.9688-17.031 3.9688h-3.125l0.8125-6.25c0.99637-7.5539 3.9224-24.34 6.4688-31.75 10.451-30.413 35.56-73.812 60.562-89.625z" fill="url(#c)"/>
 </g>
</svg>
